<?xml version="1.0" standalone="no"?>
<!DOCTYPE svg PUBLIC "-//W3C//DTD SVG 20010904//EN"
 "http://www.w3.org/TR/2001/REC-SVG-20010904/DTD/svg10.dtd">
<svg version="1.0" xmlns="http://www.w3.org/2000/svg"
 width="1221.000000pt" height="840.000000pt" viewBox="0 0 1221.000000 840.000000"
 preserveAspectRatio="xMidYMid meet">

<g transform="translate(0.000000,840.000000) scale(0.100000,-0.100000)"
fill="#000000" stroke="none">
<path d="M4497 6590 c-47 -12 -57 -17 -187 -98 -139 -87 -235 -158 -545 -406
-399 -320 -499 -418 -764 -756 -211 -268 -294 -479 -347 -880 -30 -228 -4
-434 88 -705 138 -405 301 -677 584 -974 188 -197 316 -297 539 -419 346 -189
982 -397 1615 -527 318 -65 938 -158 1240 -186 292 -27 1010 -5 1255 38 257
45 550 185 722 346 135 127 260 376 318 637 23 102 31 430 16 646 -34 488 -96
855 -217 1278 -82 284 -165 474 -324 736 -224 370 -394 518 -794 695 -234 103
-361 139 -609 174 -232 33 -356 41 -810 51 -238 5 -454 12 -482 15 -27 3 -162
10 -300 15 -137 5 -320 15 -405 22 l-156 11 -58 -26 c-32 -15 -60 -27 -63 -27
-2 0 -1 24 2 54 9 68 -13 147 -54 196 -60 73 -175 112 -264 90z m-18 -808 c26
-51 100 -115 149 -130 49 -15 141 -15 179 -1 51 19 103 61 134 110 38 57 30
55 294 69 341 18 894 16 1100 -3 879 -84 1392 -235 1678 -497 108 -98 233
-288 310 -470 119 -279 215 -758 247 -1235 14 -211 14 -641 0 -744 -29 -214
-173 -520 -298 -633 -53 -48 -162 -112 -269 -158 -316 -135 -763 -161 -1453
-84 -466 52 -1076 191 -1488 340 -174 63 -527 215 -642 276 -281 149 -590 397
-754 606 -161 204 -333 497 -380 649 -69 222 -97 520 -61 664 35 145 142 371
243 514 120 170 260 297 892 810 l85 69 7 -57 c4 -31 16 -74 27 -95z"/>
<path d="M5844 5250 c-36 -14 -74 -69 -74 -105 0 -50 10 -71 121 -241 55 -85
119 -194 141 -242 89 -196 107 -227 136 -244 89 -53 206 27 187 128 -18 100
-332 649 -395 692 -34 22 -79 27 -116 12z"/>
<path d="M5059 5133 c-35 -21 -59 -64 -59 -103 0 -29 56 -219 112 -385 46
-135 128 -310 158 -337 55 -50 151 -36 190 27 33 53 26 90 -43 236 -69 145
-89 201 -137 384 -18 66 -36 128 -42 138 -27 51 -126 73 -179 40z"/>
<path d="M7359 4197 c-63 -42 -69 -67 -69 -302 0 -247 -10 -328 -50 -413 -71
-153 -274 -279 -523 -327 -113 -21 -393 -38 -522 -30 -260 15 -371 44 -610
160 -156 76 -540 324 -790 510 -105 78 -125 89 -161 90 -49 0 -80 -23 -89 -67
-14 -64 2 -79 279 -263 591 -391 699 -454 931 -540 158 -59 215 -68 430 -67
435 0 643 43 952 192 116 57 154 81 210 134 155 146 219 342 225 691 3 135 1
153 -17 184 -40 68 -132 91 -196 48z"/>
</g>
</svg>
